<?xml version="1.0" encoding="UTF-8"?>
<svg version="1.1" xmlns="http://www.w3.org/2000/svg" width="277" height="201">
<path d="M0 0 C0.67887199 -0.00367669 1.35774398 -0.00735338 2.05718786 -0.01114148 C4.3370678 -0.02217407 6.61690217 -0.02602144 8.89680481 -0.02983093 C10.52956792 -0.03609596 12.1623296 -0.0427428 13.79508972 -0.04974365 C19.16207385 -0.07078365 24.52905825 -0.0811467 29.89607239 -0.09111023 C31.74425585 -0.09515796 33.59243917 -0.09927488 35.44062233 -0.10346031 C44.12456048 -0.12251268 52.80849013 -0.13674302 61.49244517 -0.14507228 C71.51265463 -0.1548421 81.53264303 -0.18115473 91.55277461 -0.22157317 C99.29981936 -0.2517488 107.0468008 -0.26654257 114.79390317 -0.26985329 C119.41978182 -0.27220235 124.04542432 -0.28114374 128.67123985 -0.30631447 C133.02563527 -0.32962522 137.37963958 -0.33381642 141.73408127 -0.32355309 C143.32878102 -0.32305832 144.92350022 -0.32936115 146.51814079 -0.34310913 C155.93291864 -0.41970948 163.14918568 -0.33146221 170.59529114 6.07685852 C175.63502421 12.08113381 177.85203969 16.93841115 177.58747864 24.86201477 C176.2239419 38.156498 163.22407865 47.42295651 154.32551575 56.2882843 C153.25009509 57.3634221 152.17489613 58.4387817 151.09989929 59.51434326 C148.21226194 62.40226475 145.32157607 65.28711647 142.43028712 68.17138147 C139.3975859 71.19778475 136.36776111 74.22706509 133.33761597 77.25602722 C127.61316248 82.97738624 121.88616719 88.6961938 116.15822941 94.41406429 C109.63136301 100.9297107 103.10737318 107.44823417 96.58361042 113.96698785 C83.17661519 127.3635614 69.76605401 140.75656002 56.35310364 154.14717102 C58.19900589 154.15597038 58.19900589 154.15597038 60.0821991 154.16494751 C71.7049658 154.22227224 83.32754716 154.29508485 94.95012474 154.38288593 C100.92476923 154.42752749 106.8993465 154.46679743 112.87409973 154.49360657 C118.6449169 154.51970134 124.41547456 154.56014769 130.18613052 154.61035728 C132.38279099 154.62698423 134.57949631 154.63852439 136.77621078 154.64478493 C139.86380176 154.65447135 142.95073499 154.68258522 146.03816223 154.71479797 C147.38684387 154.71264534 147.38684387 154.71264534 148.76277161 154.71044922 C157.17743855 154.83382271 165.6007027 156.29012025 171.88044739 162.28779602 C176.09718543 167.61184723 178.1098269 174.16085578 177.72810364 180.92451477 C176.49028981 188.26114049 173.12431229 192.9625126 167.54841614 197.73701477 C162.72666481 200.83426073 158.06058967 201.39822707 152.42137146 201.40786743 C151.7481033 201.41169298 151.07483514 201.41551853 150.38116491 201.41946 C148.1381692 201.42973112 145.8954323 201.42580917 143.65242004 201.42182922 C142.03891769 201.42617899 140.4254174 201.43136302 138.81192017 201.43731689 C134.43788753 201.45069028 130.06394139 201.45128737 125.68989229 201.4487536 C122.03442039 201.44768267 118.37896591 201.45257041 114.72349775 201.45735902 C106.09709007 201.46844865 97.47072593 201.46889479 88.84431458 201.46284485 C79.95450411 201.45680589 71.06485195 201.46911534 62.1750685 201.49041492 C54.53411115 201.50804706 46.89320412 201.5140297 39.25222719 201.51077718 C34.69240093 201.50896661 30.13268758 201.51157777 25.57287979 201.52549171 C21.28331756 201.53809155 16.99400155 201.53610563 12.70444298 201.52308083 C11.13394143 201.52072011 9.56342244 201.52343158 7.9929409 201.53170395 C-9.52029094 201.61727103 -9.52029094 201.61727103 -16.39689636 195.83467102 C-21.12964004 190.18167163 -23.77899637 185.87506001 -23.95939636 178.45967102 C-23.99677917 177.46580383 -24.03416199 176.47193665 -24.07267761 175.44795227 C-22.77419211 165.38171142 -15.21243756 159.16589404 -8.36076355 152.40693665 C-7.19676703 151.24406976 -6.03365325 150.08031871 -4.87135315 148.91575623 C-1.72768925 145.77094878 1.42811826 142.63859267 4.58631229 139.50838661 C7.89000175 136.22977063 11.18230178 132.93975747 14.47584534 129.6509552 C20.70801258 123.43120025 26.95030214 117.22170876 33.19632602 111.01587248 C40.30939553 103.94757497 47.41105569 96.86786122 54.51179743 89.78718281 C69.1129388 75.22780619 83.72829342 60.68276972 98.35310364 46.14717102 C97.04289246 46.14352539 95.73268127 46.13987976 94.38276672 46.13612366 C82.02354835 46.09915133 69.66457862 46.04135375 57.30554962 45.96326828 C50.95192444 45.92379206 44.59843789 45.89160405 38.2447052 45.87617493 C32.11075794 45.86100967 25.9771918 45.82656546 19.84341431 45.778862 C17.50554724 45.76404704 15.16762577 45.75612994 12.82971191 45.75528717 C9.54998846 45.75291623 6.27131714 45.72582435 2.99177551 45.69306946 C1.5481514 45.70061501 1.5481514 45.70061501 0.07536316 45.70831299 C-6.95050125 45.60005097 -12.25446744 44.0156727 -17.67033386 39.43623352 C-22.65626094 33.29749094 -24.20826031 27.95494885 -24.01408386 20.02607727 C-23.25276844 14.05704037 -21.00529795 9.17927887 -16.41642761 5.22529602 C-10.84833945 1.41029271 -6.78978658 0.02381565 0 0 Z " fill="#FFFFFF" transform="translate(99.64689636230469,-0.1471710205078125)"/>
<path d="M0 0 C14.85 0 29.7 0 45 0 C45.09040881 15.24709737 45.16404501 30.49407328 45.20724869 45.74137115 C45.22784508 52.82149372 45.25590929 59.90143752 45.30175781 66.98144531 C45.34599227 73.81548249 45.36914563 80.6493339 45.37950897 87.48350525 C45.38689334 90.0893801 45.40131322 92.69524492 45.42292023 95.30104065 C45.45200386 98.95417138 45.45595374 102.60653754 45.45410156 106.25976562 C45.46848267 107.33439056 45.48286377 108.4090155 45.49768066 109.51620483 C45.45360986 117.56203213 43.93222863 123.00112981 38.25 128.8125 C31.79773534 133.15537044 25.79421881 134.97085883 18 134 C11.62434774 132.68457732 6.7354715 129.34314278 3 124 C-0.07133281 117.33993639 -0.41488589 111.71821848 -0.34057617 104.44335938 C-0.34101425 103.31077698 -0.34145233 102.17819458 -0.34190369 101.0112915 C-0.33982302 97.2885989 -0.3165253 93.5663634 -0.29296875 89.84375 C-0.28737025 87.25443772 -0.28310135 84.66512226 -0.28010559 82.07580566 C-0.2698434 75.97027354 -0.24622831 69.86492849 -0.21605712 63.75946665 C-0.18243794 56.80417651 -0.16600828 49.8488783 -0.15097082 42.89352703 C-0.11967625 28.59558326 -0.06469457 14.29783073 0 0 Z " fill="#FFFFFF" transform="translate(0,67)"/>
<path d="M0 0 C5.24175445 2.6490587 8.73701295 6.49651247 11.3203125 11.734375 C13.23582081 17.70523875 13.42051442 25.02951164 11.27734375 30.953125 C7.74612083 36.90283822 2.80127153 41.26154053 -3.8125 43.4375 C-11.43745298 44.2771235 -18.54831692 44.2435122 -24.8125 39.4375 C-30.15061452 34.09938548 -32.91912086 28.67362677 -33.3125 21.125 C-33.10443706 15.0662073 -31.49312301 10.27730773 -27.8125 5.4375 C-19.72489705 -1.53115263 -10.20506422 -4.05430395 0 0 Z " fill="#FFFFFF" transform="translate(32.8125,1.5625)"/>
</svg>
